<svg width="113" height="167" viewBox="0 0 113 167" fill="none" xmlns="http://www.w3.org/2000/svg">
<path d="M56.004 117.166C52.4658 117.166 49.4919 114.864 46.8741 112.835C45.0789 111.447 43.3858 110.137 41.8093 109.713C40.1225 109.258 37.9358 109.543 35.62 109.847C32.2421 110.288 28.7496 110.743 25.8049 109.028C23.8369 107.883 22.5811 106.063 21.5773 104.046L4.71073 154.106C4.642 154.31 4.68782 154.484 4.84401 154.624C5.00437 154.769 5.1793 154.794 5.3709 154.704L24.4721 145.829C26.8233 144.735 29.6097 145.689 30.8135 147.997L40.6119 166.738C40.7097 166.924 40.8659 167.01 41.0784 166.994C41.2908 166.977 41.4303 166.866 41.499 166.666L58.2803 116.85C57.5472 117.049 56.7912 117.168 56.004 117.168V117.166Z" fill="white"/>
<path d="M107.299 154.109L90.4345 104.049C89.4286 106.065 88.1708 107.885 86.2069 109.03C83.258 110.745 79.7677 110.29 76.3919 109.85C74.0761 109.546 71.8873 109.258 70.2025 109.715C68.626 110.139 66.9329 111.449 65.1377 112.837C64.7504 113.139 64.3568 113.443 63.9528 113.745L58.3174 130.473L70.5128 166.669C70.5815 166.868 70.7211 166.981 70.9335 166.996C71.1417 167.015 71.2979 166.926 71.3958 166.74L81.1942 147.995C82.4021 145.689 85.1886 144.739 87.5356 145.832L106.637 154.706C106.828 154.794 107.007 154.771 107.164 154.626C107.32 154.486 107.366 154.308 107.297 154.109H107.299Z" fill="white"/>
<path d="M108.618 62.8842C110.363 60.599 112.012 58.4417 112.012 56.3788C112.012 54.3158 110.365 52.1544 108.618 49.8734C107.035 47.8041 105.402 45.6636 104.755 43.2254C104.08 40.6845 104.436 37.9402 104.773 35.286C105.136 32.4914 105.477 29.8561 104.515 28.1831C103.528 26.464 101.058 25.4388 98.4506 24.3507C96.014 23.3381 93.4962 22.2878 91.6823 20.4617C89.8684 18.6357 88.8251 16.101 87.8192 13.6481C86.7383 11.0212 85.7179 8.5369 84.0123 7.54317C82.3546 6.57878 79.7326 6.92051 76.9566 7.2832C74.3222 7.62703 71.594 7.98133 69.07 7.30207C66.65 6.65006 64.5217 5.00642 62.4662 3.41308C60.1983 1.65832 58.0553 0 56.004 0C53.9527 0 51.8118 1.65832 49.5419 3.41308C47.4864 5.00642 45.3622 6.65006 42.9381 7.30207C40.4161 7.98133 37.6901 7.62703 35.0556 7.2832C32.2796 6.91841 29.6576 6.57878 27.9999 7.54317C26.2922 8.5369 25.2739 11.0233 24.193 13.6481C23.1871 16.101 22.1438 18.6336 20.3257 20.4617C18.5118 22.2878 15.994 23.3381 13.5595 24.3507C10.948 25.4388 8.48224 26.4661 7.49511 28.1831C6.53505 29.8561 6.87659 32.4914 7.23479 35.286C7.57633 37.9381 7.93245 40.6845 7.2577 43.2254C6.61002 45.6615 4.97522 47.8041 3.39456 49.8734C1.64938 52.1565 0 54.3137 0 56.3788C0 58.4438 1.6473 60.599 3.39456 62.8842C4.97522 64.9534 6.61002 67.0918 7.2577 69.5322C7.93245 72.071 7.57633 74.8153 7.23479 77.4674C6.87659 80.262 6.53505 82.9015 7.49511 84.5745C8.48224 86.2894 10.948 87.3167 13.5595 88.4047C15.9919 89.4174 18.5097 90.4677 20.3257 92.2937C22.1438 94.124 23.1851 96.6586 24.193 99.1073C25.2739 101.736 26.2943 104.221 27.9978 105.212C29.6597 106.179 32.2817 105.835 35.0577 105.474C36.5988 105.271 38.1711 105.068 39.7164 105.068C40.8118 105.068 41.8947 105.168 42.9422 105.451C45.3663 106.103 47.4905 107.749 49.546 109.34C51.816 111.097 53.959 112.758 56.0082 112.758C58.0574 112.758 60.2045 111.099 62.4704 109.34C64.5258 107.749 66.6521 106.103 69.0741 105.451C71.5982 104.772 74.3242 105.131 76.9608 105.474C79.7368 105.839 82.3546 106.179 84.0164 105.212C85.7241 104.219 86.7425 101.736 87.8234 99.1073C88.8292 96.6586 89.8726 94.124 91.6865 92.2937C93.5004 90.4677 96.0182 89.4174 98.4548 88.4047C101.064 87.3167 103.532 86.2894 104.519 84.5745C105.479 82.9015 105.138 80.262 104.777 77.4674C104.438 74.8153 104.084 72.0689 104.759 69.5322C105.406 67.0918 107.039 64.9534 108.622 62.8842H108.618ZM81.3237 45.6993L49.1004 78.1382C48.8463 78.394 48.511 78.5324 48.1549 78.5324C47.7988 78.5324 47.4614 78.394 47.2073 78.1382L30.6823 61.5026C30.1616 60.9785 30.1616 60.1231 30.6823 59.5969L34.989 55.2655C35.2389 55.0098 35.5763 54.8714 35.9345 54.8714C36.2927 54.8714 36.6279 55.0098 36.8799 55.2655L46.6075 65.0582C47.4614 65.9178 48.8484 65.9178 49.7064 65.0582L75.1302 39.4601C75.3843 39.2085 75.7196 39.066 76.0778 39.066C76.436 39.066 76.7692 39.2064 77.0232 39.4601L81.3258 43.7957C81.8506 44.3198 81.8506 45.173 81.3258 45.7014L81.3237 45.6993Z" fill="white"/>
</svg>
