<svg width="72" height="72" viewBox="0 0 72 72" fill="none" xmlns="http://www.w3.org/2000/svg">
<path d="M33 48L18 63M33 63H15C13.4087 63 11.8826 62.3679 10.7574 61.2426C9.63214 60.1174 9 58.5913 9 57V15C9 13.4087 9.63214 11.8826 10.7574 10.7574C11.8826 9.63214 13.4087 9 15 9H57C58.5913 9 60.1174 9.63214 61.2426 10.7574C62.3679 11.8826 63 13.4087 63 15V34.5M47.295 66C47.0679 66.1419 46.807 66.2205 46.5394 66.2275C46.2717 66.2345 46.007 66.1698 45.7728 66.04C45.5387 65.9102 45.3435 65.72 45.2076 65.4893C45.0717 65.2586 45 64.9958 45 64.728V40.14C45 39.8722 45.0717 39.6094 45.2076 39.3787C45.3435 39.148 45.5387 38.9578 45.7728 38.828C46.007 38.6982 46.2717 38.6335 46.5394 38.6405C46.807 38.6475 47.0679 38.7261 47.295 38.868L64.929 49.89C65.3605 50.1597 65.7163 50.5347 65.9629 50.9797C66.2096 51.4247 66.339 51.9252 66.339 52.434C66.339 52.9428 66.2096 53.4433 65.9629 53.8883C65.7163 54.3333 65.3605 54.7083 64.929 54.978L47.295 66ZM33 27C33 30.3137 30.3137 33 27 33C23.6863 33 21 30.3137 21 27C21 23.6863 23.6863 21 27 21C30.3137 21 33 23.6863 33 27Z" stroke="white" stroke-width="2" stroke-linecap="round" stroke-linejoin="round"/>
</svg>
